<svg xmlns="http://www.w3.org/2000/svg" width="57" height="31" viewBox="0 0 57 31" fill="none">
<g id="Layer 2">
<g id="Layer 1 2">
<path id="Vector" d="M18.126 9.96403C18.126 4.50209 22.7539 0.0734863 28.4616 0.0734863C34.1693 0.0734863 38.7971 4.50209 38.7971 9.96403C38.7971 15.426 34.1693 19.8546 28.4616 19.8546C22.7539 19.8546 18.126 15.426 18.126 9.96403Z" fill="#FF8F32"/>
<path id="Vector_2" d="M57 23.5454H0V31.0002H57V23.5454Z" fill="#FF8F32"/>
<path id="Vector_3" d="M3.85656 0C2.54533 0 1.2341 0.22143 0 0.7381V19.1168C5.32206 21.1835 11.3383 18.6739 13.498 13.581C15.6576 8.48815 13.0352 2.73097 7.71313 0.7381C6.47903 0.29524 5.16779 0 3.85656 0Z" fill="#FF8F32"/>
<path id="Vector_4" d="M53.0629 0C54.3741 0 55.6853 0.22143 56.9194 0.738101V19.1168C51.5974 21.1835 45.5811 18.7478 43.4215 13.6549C41.2618 8.56197 43.8071 2.80478 49.1292 0.738101C50.4404 0.29524 51.7516 0 53.0629 0Z" fill="#FF8F32"/>
</g>
</g>
</svg>