<svg xmlns="http://www.w3.org/2000/svg" width="44" height="44" viewBox="0 0 44 44" fill="none">
<g id="Interface User Work Laptop Outdoor by Streamlinehq">
<path id="Vector" d="M21.7196 28.4549C21.4258 26.9859 20.1359 25.9285 18.6378 25.9285H6.19079C4.20752 25.9285 2.72002 27.7429 3.10897 29.6877L4.99468 39.1162C5.28851 40.5852 6.57836 41.6428 8.0765 41.6428H24.3571L21.7196 28.4549Z" fill="#FF7A01" fill-opacity="0.2" stroke="#FF8F32" stroke-width="1.71429" stroke-linecap="round" stroke-linejoin="round"/>
<path id="Vector_2" d="M27.0358 20.527C31.5493 20.527 35.2085 16.868 35.2085 12.3544C35.2085 7.84086 31.5493 4.18188 27.0358 4.18188C22.5223 4.18188 18.8633 7.84086 18.8633 12.3544C18.8633 16.868 22.5223 20.527 27.0358 20.527Z" fill="#FF7A01" fill-opacity="0.2" stroke="#FF8F32" stroke-width="1.71429" stroke-linecap="round" stroke-linejoin="round"/>
<path id="Vector_3" d="M24.2173 41.6431H41.5705C41.5705 36.072 36.926 30.781 31.222 28.7456" stroke="#FF8F32" stroke-width="1.71429" stroke-linecap="round" stroke-linejoin="round"/>
</g>
</svg>