<svg xmlns="http://www.w3.org/2000/svg" width="44" height="44" viewBox="0 0 44 44" fill="none">
<g id="Interface Share Mega Phone Setting 2 by Streamlinehq">
<path id="Vector" d="M22 40.5215C16.8074 40.5215 12.5979 36.3751 12.5979 31.2607C12.5979 26.1462 16.8074 22 22 22" stroke="#FF8F32" stroke-width="1.71429" stroke-linecap="round" stroke-linejoin="round"/>
<path id="Vector_2" d="M36.8994 6.50798C42.9623 8.66803 42.9623 31.8236 36.8994 33.9837C36.3041 34.1958 35.657 34.0497 35.0536 33.8624L13.5764 27.1954V13.2962L35.0536 6.62923C35.657 6.44189 36.3041 6.29593 36.8994 6.50798Z" fill="#FFE9D6"/>
<path id="Vector_3" d="M19.3242 11.512L13.5764 13.2962V27.1954L35.0536 33.8624C35.657 34.0497 36.3035 34.1958 36.8987 33.984C38.6408 33.3639 39.8823 31.0102 40.6233 27.9192" stroke="#FF8F32" stroke-width="1.71429" stroke-linecap="round" stroke-linejoin="round"/>
<path id="Vector_4" d="M2.55347 20.2442C2.55347 16.4074 5.66379 13.2971 9.50056 13.2971H13.5763V27.1913H9.50056C5.66379 27.1913 2.55347 24.081 2.55347 20.2442Z" stroke="#FF8F32" stroke-width="1.71429"/>
<path id="Vector_5" d="M39.3544 11.7777C39.3544 14.9616 36.7732 17.5426 33.5895 17.5426C30.4055 17.5426 27.8245 14.9616 27.8245 11.7777C27.8245 8.59377 30.4055 6.0127 33.5895 6.0127C36.7732 6.0127 39.3544 8.59377 39.3544 11.7777Z" stroke="#FF8F32" stroke-width="1.71429" stroke-linecap="round"/>
<path id="Vector_6" d="M38.5823 8.89486L41.0786 7.45361" stroke="#FF8F32" stroke-width="1.71429" stroke-linecap="round"/>
<path id="Vector_7" d="M38.5823 14.6599L41.0786 16.1011" stroke="#FF8F32" stroke-width="1.71429" stroke-linecap="round"/>
<path id="Vector_8" d="M33.5896 17.5425V20.4247" stroke="#FF8F32" stroke-width="1.71429" stroke-linecap="round"/>
<path id="Vector_9" d="M26.1011 16.1014L28.5974 14.6602" stroke="#FF8F32" stroke-width="1.71429" stroke-linecap="round"/>
<path id="Vector_10" d="M26.1011 7.45361L28.5974 8.89483" stroke="#FF8F32" stroke-width="1.71429" stroke-linecap="round"/>
<path id="Vector_11" d="M33.5896 6.01275V3.13013" stroke="#FF8F32" stroke-width="1.71429" stroke-linecap="round"/>
</g>
</svg>