<svg xmlns="http://www.w3.org/2000/svg" width="44" height="44" viewBox="0 0 44 44" fill="none">
<g id="Shopping Business Handshake by Streamlinehq">
<path id="Vector" d="M36.5053 32.2603C34.1723 35.7599 25.0761 39.5963 19.2479 39.5963C13.4197 39.5963 7.51184 33.3659 2.19043 27.3689" stroke="#FF8F32" stroke-width="1.71429" stroke-linecap="round" stroke-linejoin="round"/>
<path id="Vector_2" d="M2.19043 5.21851L9.17793 8.78216C10.4607 8.22314 17.0794 8.02451 21.7445 10.6272" stroke="#FF8F32" stroke-width="1.71429" stroke-linecap="round" stroke-linejoin="round"/>
<path id="Vector_3" d="M16.2758 16.1655L20.3086 12.2541C22.2014 10.4183 24.7765 9.45901 27.4092 9.60895L32.5856 9.90382C35.802 7.94418 39.421 5.78859 41.8095 4.30981V27.2987C40.1828 30.3029 38.2298 31.6032 36.4142 32.195C32.2468 29.7725 28.1901 23.87 25.9881 20.2121L22.339 23.0915C20.2375 24.7497 17.1702 24.2746 15.6688 22.0583C14.4147 20.2069 14.6706 17.7224 16.2758 16.1655Z" fill="#FF7A01" fill-opacity="0.2"/>
<path id="Vector_4" d="M41.8098 27.2987C40.1828 30.3029 38.2298 31.6032 36.4142 32.195C32.2468 29.7725 28.1901 23.87 25.9881 20.2121L22.339 23.0915C20.2375 24.7497 17.1702 24.2746 15.6689 22.0583C14.4147 20.2069 14.6706 17.7224 16.2758 16.1655L20.3086 12.2541C22.2015 10.4183 24.7766 9.45901 27.4092 9.60895L32.5856 9.90382C35.802 7.94418 39.421 5.78859 41.8098 4.30981" stroke="#FF8F32" stroke-width="1.71429" stroke-linecap="round" stroke-linejoin="round"/>
<path id="Vector_5" d="M26.0022 20.2076C28.7792 21.075 31.1002 20.6403 33.3683 19.0781" stroke="#FF8F32" stroke-width="1.71429" stroke-linecap="round" stroke-linejoin="round"/>
</g>
</svg>