<svg xmlns="http://www.w3.org/2000/svg" width="16" height="16" viewBox="0 0 16 16" fill="none">
<g id="Interface User Multiple by Streamlinehq" clip-path="url(#clip0_1_556)">
<path id="Vector" d="M10.7394 8.01C12.2535 8.01 13.4809 6.78255 13.4809 5.26842C13.4809 3.7543 12.2535 2.52686 10.7394 2.52686C9.22524 2.52686 7.9978 3.7543 7.9978 5.26842C7.9978 6.78255 9.22524 8.01 10.7394 8.01Z" fill="#F4F9FC"/>
<path id="Vector_2" d="M10.7395 8.01009C12.2536 8.01009 13.4811 6.78264 13.4811 5.26851C13.4811 4.09725 12.7466 3.09753 11.7131 2.70483" stroke="#7988A8" stroke-width="1.71429" stroke-linecap="round" stroke-linejoin="round"/>
<path id="Vector_3" d="M14.4842 11.8613C15.8252 12.7545 14.9197 14.4771 13.3084 14.4771H7.25772C5.64646 14.4771 4.74092 12.7545 6.08196 11.8613C7.28484 11.0602 8.72943 10.5933 10.2831 10.5933C11.8368 10.5933 13.2813 11.0602 14.4842 11.8613Z" fill="#F4F9FC"/>
<path id="Vector_4" d="M6.12638 7.46662C7.76767 7.46662 9.09821 6.13608 9.09821 4.49479C9.09821 2.85349 7.76767 1.52295 6.12638 1.52295C4.48508 1.52295 3.15454 2.85349 3.15454 4.49479C3.15454 6.13608 4.48508 7.46662 6.12638 7.46662Z" fill="#F4F9FC" stroke="#7988A8" stroke-width="1.71429" stroke-linecap="round" stroke-linejoin="round"/>
<path id="Vector_5" d="M10.6783 11.6419C12.132 12.6101 11.1504 14.4774 9.40377 14.4774H2.84483C1.09826 14.4774 0.116661 12.6101 1.57033 11.6419C2.87425 10.7734 4.44017 10.2673 6.12431 10.2673C7.80845 10.2673 9.37438 10.7734 10.6783 11.6419Z" fill="#F4F9FC" stroke="#7988A8" stroke-width="1.71429"/>
<path id="Vector_6" d="M9.15112 14.4773H13.3083C14.9196 14.4773 15.8251 12.7547 14.4841 11.8614C14.1138 11.6148 13.7205 11.3999 13.3083 11.2205" stroke="#7988A8" stroke-width="1.71429" stroke-linecap="round"/>
</g>
<defs>
<clipPath id="clip0_1_556">
<rect width="16" height="16" fill="white"/>
</clipPath>
</defs>
</svg>