<svg xmlns="http://www.w3.org/2000/svg" width="16" height="16" viewBox="0 0 16 16" fill="none">
<g id="Interface Help Customer Support 1 by Streamlinehq" clip-path="url(#clip0_1_567)">
<path id="Vector" d="M1.14282 9.14275C1.14282 4.57132 2.95879 0.887451 8.00025 0.887451C13.0325 0.887451 14.8571 4.57132 14.8571 9.14275" stroke="#7988A8" stroke-width="1.71429" stroke-linecap="round"/>
<path id="Vector_2" d="M1.14282 9.30588C1.14282 6.79185 2.88432 6.16333 3.75506 6.16333C5.32241 6.16333 5.71425 7.42035 5.71425 8.04886V10.5629C5.71425 12.0713 4.40813 12.4485 3.75506 12.4485C2.88432 12.4485 1.14282 11.8199 1.14282 9.30588Z" fill="#F4F9FC" stroke="#7988A8" stroke-width="1.71429"/>
<path id="Vector_3" d="M14.8571 9.30588C14.8571 6.79185 13.1156 6.16333 12.2448 6.16333C10.6775 6.16333 10.2856 7.42035 10.2856 8.04886V10.5629C10.2856 12.0713 11.5918 12.4485 12.2448 12.4485C13.1156 12.4485 14.8571 11.8199 14.8571 9.30588Z" fill="#F4F9FC" stroke="#7988A8" stroke-width="1.71429"/>
<path id="Vector_4" d="M14.855 9.17651C14.855 9.17651 15.1597 13.1574 13.3154 14.3077C11.4711 15.458 9.19214 14.9318 9.19214 14.9318" stroke="#7988A8" stroke-width="1.71429" stroke-linecap="round"/>
</g>
<defs>
<clipPath id="clip0_1_567">
<rect width="16" height="16" fill="white"/>
</clipPath>
</defs>
</svg>