<svg xmlns="http://www.w3.org/2000/svg" width="69" height="69" viewBox="0 0 69 69" fill="none">
<mask id="path-1-inside-1_301_911" fill="white">
<path d="M0 24C0 10.7452 10.7452 0 24 0H45C58.2548 0 69 10.7452 69 24V45C69 58.2548 58.2548 69 45 69H24C10.7452 69 0 58.2548 0 45V24Z"/>
</mask>
<path d="M0 24C0 10.7452 10.7452 0 24 0H45C58.2548 0 69 10.7452 69 24V45C69 58.2548 58.2548 69 45 69H24C10.7452 69 0 58.2548 0 45V24Z" fill="#FF7A01" fill-opacity="0.2"/>
<path d="M0 0H69H0ZM69 45C69 58.8071 57.8071 70 44 70H25C11.1929 70 0 58.8071 0 45C0 57.7025 10.7452 68 24 68H45C58.2548 68 69 57.7025 69 45ZM0 69V0V69ZM69 0V69V0Z" fill="#FF8F32" mask="url(#path-1-inside-1_301_911)"/>
<path d="M27.4019 30.8178C27.4019 27.0806 30.5683 24.0505 34.4736 24.0505C38.3788 24.0505 41.5453 27.0806 41.5453 30.8178C41.5453 34.5549 38.3788 37.585 34.4736 37.585C30.5683 37.585 27.4019 34.5549 27.4019 30.8178Z" fill="#FF8F32"/>
<path d="M54 40.1101H15V45.2108H54V40.1101Z" fill="#FF8F32"/>
<path d="M17.6387 24C16.7415 24 15.8444 24.1515 15 24.505V37.0799C18.6414 38.494 22.7578 36.7769 24.2355 33.2923C25.7131 29.8077 23.9188 25.8686 20.2774 24.505C19.433 24.202 18.5359 24 17.6387 24Z" fill="#FF8F32"/>
<path d="M51.3062 24C52.2034 24 53.1006 24.1515 53.9449 24.505V37.0799C50.3035 38.494 46.1872 36.8274 44.7095 33.3428C43.2318 29.8582 44.9734 25.9191 48.6148 24.505C49.5119 24.202 50.4091 24 51.3062 24Z" fill="#FF8F32"/>
</svg>