<svg xmlns="http://www.w3.org/2000/svg" width="16" height="16" viewBox="0 0 16 16" fill="none">
<g id="Mail Chat Bubble Oval by Streamlinehq" clip-path="url(#clip0_1_550)">
<path id="Vector" d="M4.60283 1.88169C5.68303 1.23465 6.91852 0.892729 8.1777 0.892335C9.22532 0.891718 10.2596 1.12757 11.2034 1.58232C12.1472 2.03706 12.9762 2.69896 13.6285 3.51868C14.2809 4.3384 14.7398 5.2948 14.9711 6.31658C15.2025 7.33836 15.2002 8.39917 14.9644 9.41994C14.7286 10.4407 14.2655 11.3951 13.6095 12.212C12.9537 13.0288 12.1218 13.6871 11.176 14.1377C10.2302 14.5883 9.19495 14.8196 8.14733 14.8145C7.27295 14.8102 6.40881 14.6411 5.59965 14.3179L1.79487 14.9515C1.36977 15.0223 1.02228 14.615 1.15919 14.2063L2.13252 11.3012C1.59035 10.3502 1.27894 9.28266 1.22662 8.18476C1.1667 6.92701 1.44905 5.67657 2.04359 4.5666C2.63813 3.45664 3.52261 2.52873 4.60283 1.88169Z" fill="#F4F9FC" stroke="#7988A8" stroke-width="1.71429" stroke-linecap="round" stroke-linejoin="round"/>
</g>
<defs>
<clipPath id="clip0_1_550">
<rect width="16" height="16" fill="white"/>
</clipPath>
</defs>
</svg>