
<svg xmlns="http://www.w3.org/2000/svg" width="16" height="16" viewBox="0 0 16 16" fill="none">
<g id="Mail Send Envelope by Streamlinehq" clip-path="url(#clip0_1_514)">
<path id="Vector" d="M1.17909 12.042C1.31498 13.1367 2.19929 14.0014 3.29635 14.1161C4.81441 14.2747 6.38774 14.4423 8.00003 14.4423C9.61233 14.4423 11.1857 14.2747 12.7037 14.1161C13.8007 14.0014 14.6851 13.1367 14.8209 12.042C14.9832 10.7351 15.1429 9.38354 15.1429 8.00008C15.1429 6.6166 14.9832 5.26505 14.8209 3.95815C14.6851 2.86352 13.8007 1.99879 12.7037 1.8841C11.1857 1.72542 9.61233 1.55786 8.00003 1.55786C6.38774 1.55786 4.8144 1.72542 3.29635 1.8841C2.19929 1.99879 1.31498 2.86352 1.17907 3.95815C1.01682 5.26505 0.857178 6.6166 0.857178 8.00008C0.857178 9.38354 1.01682 10.7351 1.17909 12.042Z" fill="#F4F9FC" stroke="#7988A8" stroke-width="1.71429"/>
<path id="Vector_2" d="M1.21094 3.66211L6.58479 7.89921C7.41478 8.55363 8.58522 8.55363 9.41521 7.89921L14.789 3.66211" stroke="#7988A8" stroke-width="1.71429" stroke-linejoin="round"/>
</g>
<defs>
<clipPath id="clip0_1_514">
<rect width="16" height="16" fill="white"/>
</clipPath>
</defs>
</svg>