<svg xmlns="http://www.w3.org/2000/svg" width="36" height="36" viewBox="0 0 36 36" fill="none">
<g id="Frame 11128">
<rect width="36" height="36" rx="12" fill="white"/>
<g id="Vector">
<path d="M14.6644 16.3677C12.9732 17.7202 7.51678 17.9028 5 17.8251V18.1749H32V17.8251C25.8148 17.8251 22.9799 16.8535 22.3356 16.3677C20.1128 15.2018 19.2349 12.3842 19.0738 11.1211C18.8322 9.76861 18.7315 6.47683 18.7114 5H18.349C18.3973 7.89148 18.0872 10.2855 17.9262 11.1211C17.7812 14.0126 15.6913 15.8236 14.6644 16.3677Z" fill="#7988A8"/>
<path d="M22.3356 19.6323C24.0268 18.2798 29.4832 18.0972 32 18.1749V17.8251H5V18.1749C11.1852 18.1749 14.0201 19.1465 14.6644 19.6323C16.8872 20.7982 17.7651 23.6158 17.9262 24.8789C18.1678 26.2314 18.2685 29.5232 18.2886 31H18.651C18.6027 28.1085 18.9128 25.7145 19.0738 24.8789C19.2188 21.9874 21.3087 20.1764 22.3356 19.6323Z" fill="#7988A8"/>
</g>
</g>
</svg>