<svg xmlns="http://www.w3.org/2000/svg" width="36" height="36" viewBox="0 0 36 36" fill="none">
<g id="Frame 11127">
<rect width="36" height="36" rx="12" fill="white"/>
<path id="Subtract" fill-rule="evenodd" clip-rule="evenodd" d="M8.06366 11.1228C7 12.2455 7 14.0526 7 17.6667C7 21.2808 7 23.0878 8.06366 24.2106C9.12733 25.3333 10.8393 25.3333 14.2632 25.3333H22.7368C26.1607 25.3333 27.8727 25.3333 28.9363 24.2106C30 23.0878 30 21.2808 30 17.6667V17.6667V17.6666C30 14.0526 30 12.2455 28.9363 11.1228C27.8727 10 26.1607 10 22.7368 10H14.2632C10.8393 10 9.12733 10 8.06366 11.1228ZM20.4167 18.1408C20.7817 17.93 20.7817 17.4031 20.4167 17.1923L17.131 15.2953C16.7659 15.0845 16.3095 15.348 16.3095 15.7695V19.5636C16.3095 19.9851 16.7659 20.2486 17.131 20.0378L20.4167 18.1408Z" fill="#7988A8"/>
</g>
</svg>