<svg xmlns="http://www.w3.org/2000/svg" width="36" height="36" viewBox="0 0 36 36" fill="none">
<g id="Frame 11126">
<rect width="36" height="36" rx="12" fill="white"/>
<path id="Vector 576" d="M23.1204 14.9056L17.0605 20.9397C17.021 20.9791 16.9932 21.0288 16.9803 21.0831L16.2131 24.3203C16.1432 24.6153 16.505 24.816 16.7182 24.6005L18.9586 22.3366C19.0599 22.2342 19.2199 22.2183 19.3394 22.2988L24.459 25.7478C24.6369 25.8676 24.8793 25.7676 24.921 25.5573L27.8923 10.5443C27.9386 10.3104 27.7066 10.1186 27.4855 10.2079L9.7104 17.3929C9.45733 17.4951 9.46127 17.8548 9.71651 17.9515L13.9314 19.5487C14.0169 19.5811 14.1124 19.5728 14.191 19.5261L22.7555 14.4351C23.0593 14.2545 23.3709 14.6562 23.1204 14.9056Z" fill="#7988A8"/>
</g>
</svg>