<svg xmlns="http://www.w3.org/2000/svg" width="36" height="36" viewBox="0 0 36 36" fill="none">
<rect width="36" height="36" rx="12" fill="white"/>
<g clip-path="url(#clip0_1_523)">
<path d="M27.8217 22.473C27.768 22.383 27.4355 21.6605 25.8353 20.1754C24.1602 18.6203 24.3852 18.8728 26.4029 16.1838C27.6317 14.5462 28.123 13.5461 27.9692 13.1186C27.823 12.7111 26.9192 12.8186 26.9192 12.8186L23.9139 12.8361C23.9139 12.8361 23.6914 12.8061 23.5252 12.9048C23.3639 13.0023 23.2602 13.2274 23.2602 13.2274C23.2602 13.2274 22.7839 14.4949 22.1488 15.5725C20.81 17.8464 20.2737 17.9665 20.0549 17.8252C19.5461 17.4964 19.6736 16.5026 19.6736 15.7975C19.6736 13.5936 20.0074 12.6748 19.0223 12.4373C18.6948 12.3585 18.4548 12.306 17.6185 12.2973C16.5459 12.286 15.6371 12.301 15.1233 12.5523C14.7808 12.7198 14.517 13.0936 14.6783 13.1148C14.877 13.1411 15.3271 13.2361 15.5658 13.5611C15.8746 13.9799 15.8634 14.9225 15.8634 14.9225C15.8634 14.9225 16.0409 17.5164 15.4496 17.8389C15.0433 18.0602 14.487 17.6089 13.2932 15.545C12.6819 14.4887 12.2193 13.3199 12.2193 13.3199C12.2193 13.3199 12.1306 13.1023 11.9718 12.9861C11.7793 12.8448 11.5093 12.7998 11.5093 12.7998L8.65158 12.8173C8.65158 12.8173 8.2228 12.8298 8.06528 13.0161C7.92527 13.1823 8.05403 13.5249 8.05403 13.5249C8.05403 13.5249 10.2917 18.759 12.8244 21.398C15.1483 23.8169 17.786 23.6581 17.786 23.6581H18.9811C18.9811 23.6581 19.3424 23.6181 19.5261 23.4194C19.6961 23.2368 19.6899 22.8943 19.6899 22.8943C19.6899 22.8943 19.6661 21.2905 20.4112 21.0542C21.145 20.8217 22.0876 22.6043 23.0864 23.2906C23.8414 23.8094 24.4152 23.6956 24.4152 23.6956L27.0867 23.6581C27.0867 23.6581 28.4843 23.5719 27.8217 22.473Z" fill="#7988A8"/>
</g>
<defs>
<clipPath id="clip0_1_523">
<rect width="20" height="20" fill="white" transform="translate(8 8)"/>
</clipPath>
</defs>
</svg>